<svg xmlns="http://www.w3.org/2000/svg" viewBox="0 0 248.27 253.08"><title>Asset 3</title><g id="Layer_2" data-name="Layer 2"><g id="Layer_1-2" data-name="Layer 1"><path d="M190.17,217.8c8.9,0,17.39.07,25.87,0,10.46-.11,11-.19,10.59,10.8a34.9,34.9,0,0,1-.91,8c-2.73,10.05-11.37,16.48-22,16.49q-44.25.06-88.48,0H24.34C9.41,253.08,0,243.7,0,228.74Q0,117.46,0,6.18C0,1.24,1.26,0,6.22,0H184.08c4.91,0,6.1,1.22,6.1,6.24q0,103.64,0,207.26ZM8.4,8.6V224.65c0,2.1-.06,4.2,0,6.3a14.15,14.15,0,0,0,13.32,13.7,14,14,0,0,0,14.54-12,57.35,57.35,0,0,0,.19-8.09c0-5.73,1.05-6.76,6.81-6.76H181.57V8.6ZM218.05,226.42H44.78A25.56,25.56,0,0,1,40,244.68h162C213.4,244.68,219.24,238.1,218.05,226.42ZM206.29,89.12q0-35.85,0-71.69C206.3,6.61,212.85,0,223.61,0c2.7,0,5.4,0,8.1,0,9.58.11,16.44,6.89,16.52,16.47.08,10,0,20,0,30q0,57.73-.06,115.47a15.1,15.1,0,0,1-1.31,6c-4.94,10.91-10.07,21.75-15.09,32.62-1,2.08-2,4-4.68,3.94s-3.53-1.93-4.43-3.88c-5.11-11.06-10.28-22.09-15.3-33.19a12.86,12.86,0,0,1-1-5.18C206.27,137.91,206.3,113.51,206.29,89.12Zm8.63-52.91V160h8V36.21Zm16.77,0V160h8V36.22Zm8-8.74c0-4.34.29-8.52-.08-12.65a7,7,0,0,0-6.9-6.33,92.92,92.92,0,0,0-11.07,0c-3.56.22-6.52,2.8-6.75,6.13-.3,4.23-.08,8.51-.08,12.82Zm-12.44,163,10-21.67H217.18C220.5,175.93,223.69,182.79,227.23,190.43ZM71.62,177.55a21.33,21.33,0,0,0-2.4,0c-2.26.27-3.7,1.51-3.89,3.82-.21,2.51,1.24,3.91,3.54,4.45a12,12,0,0,0,2.69.1h85.78a13.42,13.42,0,0,0,3-.1c2.18-.51,3.54-1.87,3.45-4.24a3.89,3.89,0,0,0-3.67-4,18.7,18.7,0,0,0-2.7,0H71.62Zm76.69-75c3.8,0,7.6,0,11.4,0a3.82,3.82,0,0,0,4.06-3.92c.15-2.54-1.37-3.86-3.67-4.36a12.67,12.67,0,0,0-2.69-.08q-42.89,0-85.78,0c-1.36,0-3.1-.09-4,.66-1.13.94-2.27,2.79-2.11,4.08s1.8,2.57,3.07,3.47c.68.48,1.94.16,2.94.16h76.78Zm8.81,41.7a18,18,0,0,0,3.28-.19,3.78,3.78,0,0,0,3.36-4.24,3.72,3.72,0,0,0-3.49-3.83,18.59,18.59,0,0,0-2.69-.15H71.53c-1,0-2.28-.25-2.93.25-1.28,1-2.77,2.3-3.16,3.74-.55,2,.82,3.63,3,4.14a14.3,14.3,0,0,0,3.27.26h42.88Q135.82,144.31,157.12,144.29ZM54.62,182c0,3,0,6,0,9,0,3.32-1.4,4.88-4.65,4.93q-9.43.15-18.86,0c-3.3-.07-4.7-1.6-4.73-4.89q-.09-9.28,0-18.56c0-3.11,1.49-4.72,4.55-4.78q9.59-.18,19.16,0c3.07.06,4.47,1.67,4.53,4.78S54.62,178.75,54.62,182ZM46,187.3V176.18H34.87V187.3ZM40.55,126c3.09,0,6.19,0,9.28,0s4.72,1.47,4.76,4.49q.12,9.74,0,19.47c0,2.75-1.62,4.23-4.36,4.25q-9.73.06-19.47,0a4,4,0,0,1-4.36-4.31c-.12-6.49-.11-13,0-19.47,0-2.83,1.71-4.35,4.58-4.42C34.16,125.89,37.35,126,40.55,126ZM34.9,145.61H46v-11H34.9Zm.32-50.85c-2.21-2.19-4.47-2.3-6.32-.46s-1.75,4.07.42,6.32c2.49,2.6,5,5.13,7.61,7.65,3,2.89,4.76,2.93,7.66.06q7-6.94,14-14c2.31-2.33,2.58-4.75.86-6.57-1.9-2-4.3-1.82-6.77.63-3.89,3.87-7.73,7.79-12.1,12.19C38.59,98.42,37,96.52,35.22,94.76Zm-7.49-26a11.56,11.56,0,0,1-4.67-3.84,9.17,9.17,0,0,1-1.68-5.34A108.54,108.54,0,0,1,23,46.67l5.65.32c-.36,2.27-.69,4.64-1,7.09s-.45,4.07-.45,4.85a5.13,5.13,0,0,0,.89,2.9,6.05,6.05,0,0,0,2.54,2.08,8.53,8.53,0,0,0,3.66.77,8,8,0,0,0,3.57-.77,5.73,5.73,0,0,0,2.38-2.06A5.19,5.19,0,0,0,41.09,59V36.57h6V59.65a9.54,9.54,0,0,1-1.54,5.27,10.77,10.77,0,0,1-4.4,3.82,14.78,14.78,0,0,1-6.63,1.41A15.75,15.75,0,0,1,27.73,68.74Zm4.07-38h5.52v5.83H31.8Zm31.78,22.8V59H53.17V27.59h6v26Zm0,0H74.8V59H63.58Zm38.79,0V59H74.8V53.54H91.73V45.1a4.35,4.35,0,0,0-.83-2.89,3.57,3.57,0,0,0-2.85-1c-2.75.09-5.15.18-7.18.27l-2.29.09-.18-4a43.91,43.91,0,0,1,5.65-1.06,46.37,46.37,0,0,1,5.62-.43c2.81,0,4.85.6,6.12,1.78s1.93,3.06,2,5.63v10Zm19.44,0V59H102.37V53.54h6.69v-17h6v17ZM106.28,26.79h4.62V32.4h-4.62Zm6.82,0h4.62V32.4H113.1Zm32.66,10.73a6.88,6.88,0,0,1,3.37,3.81A19.89,19.89,0,0,1,150,47.8V59H121.76V53.54h7a30.15,30.15,0,0,1-.63-5.7,30.91,30.91,0,0,1,.49-5.3,41.76,41.76,0,0,1,1.13-4.89,15,15,0,0,1,3.59-1,28.55,28.55,0,0,1,5.3-.45A15.17,15.17,0,0,1,145.76,37.52ZM134.18,51c.13,1.06.27,1.93.42,2.58H144V47.66A7.11,7.11,0,0,0,142.75,43q-1.23-1.49-4.73-1.48a16.56,16.56,0,0,0-3.42.36,32.57,32.57,0,0,0-.62,5.92A23.78,23.78,0,0,0,134.18,51ZM163.79,27.1,154,29l-.49-2.11,2.06-.54a4.61,4.61,0,0,1-1.75-3.63,4.42,4.42,0,0,1,1.33-3.19,4.53,4.53,0,0,1,3.39-1.35,6.64,6.64,0,0,1,3.5,1.08L161.41,22a3.23,3.23,0,0,0-1.89-.63,2.27,2.27,0,0,0-2.33,2.29,2.36,2.36,0,0,0,1.07,2l4.9-1.3Zm-7.95,4.36h6V59h-6Z"/></g></g></svg>