<?xml version="1.0" encoding="utf-8"?>
<!-- Generator: Adobe Illustrator 23.0.2, SVG Export Plug-In . SVG Version: 6.00 Build 0)  -->
<svg version="1.1" id="white_back" xmlns="http://www.w3.org/2000/svg" xmlns:xlink="http://www.w3.org/1999/xlink" x="0px" y="0px"
	 viewBox="0 0 864 864" style="enable-background:new 0 0 864 864;" xml:space="preserve">
<style type="text/css">
	.st0{fill:#484848;stroke:#231F20;stroke-width:5.5252;stroke-miterlimit:10;}
	.st1{fill:#55BFDF;}
	.st2{fill:#2A7CA2;}
	.st3{fill:#484848;}
	.st4{fill:#8F8F8F;}
	.st5{fill:#0C88CA;}
</style>
<g>
	
		<rect x="182.53" y="340.44" transform="matrix(0.7071 -0.7071 0.7071 0.7071 -157.6398 306.7823)" class="st0" width="217.93" height="6.48"/>
	
		<rect x="145.23" y="177.97" transform="matrix(0.7114 -0.7028 0.7028 0.7114 -92.8407 165.4694)" class="st1" width="19.62" height="35.59"/>
	
		<rect x="156.74" y="173.25" transform="matrix(0.7114 -0.7028 0.7028 0.7114 -88.1394 167.4673)" class="st2" width="6.17" height="35.59"/>
	<path class="st3" d="M164.91,199.3c-27.61,24.02-30.52,65.87-6.51,93.48c19.26,22.14,38.51,26.67,64.17,15.89l-0.03-7.7
		c-19.66,2.67-39.97,0.26-54.56-16.51c-19.42-22.32-17.06-56.16,5.26-75.58s56.16-17.06,75.58,5.26
		c14.16,16.28,15.52,36.14,9.52,54.41l8.7,0.02c13.24-23.71,10.2-41.09-8.65-62.76C234.38,178.19,192.52,175.28,164.91,199.3z"/>
	<g>
		<g>
			<polygon class="st2" points="200.87,652.54 209.9,733.98 218.27,652.47 			"/>
			<polygon class="st1" points="189.41,242.5 189.26,242.5 190.94,636.09 196.07,657.27 221.54,657.16 223.97,635.95 222.44,277.29 
							"/>
			<polygon class="st2" points="210.85,265.08 212.52,657.2 221.54,657.16 223.97,635.95 222.44,277.29 			"/>
			<path class="st3" d="M230.11,591.89c0.05,12.61-10.13,22.88-22.74,22.94c-12.61,0.05-22.88-10.13-22.94-22.74
				c-0.05-12.61,10.13-22.88,22.74-22.94C219.78,569.1,230.05,579.28,230.11,591.89z"/>
			<path class="st4" d="M224.2,591.92c0.04,9.35-7.51,16.97-16.86,17.01c-9.35,0.04-16.97-7.51-17.01-16.86
				c-0.04-9.35,7.51-16.97,16.86-17.01C216.55,575.01,224.16,582.56,224.2,591.92z"/>
		</g>
		<g>
			<polygon class="st2" points="604.67,246.83 686.1,255.87 604.6,264.23 			"/>
			<polygon class="st1" points="191.42,235.37 191.42,235.23 585.01,236.91 606.19,242.04 606.08,267.51 584.87,269.93 
				226.21,268.41 			"/>
			<polygon class="st2" points="217.21,256.81 609.33,258.48 609.29,267.51 588.08,269.93 229.42,268.41 			"/>
			<path class="st3" d="M544.02,276.07c12.61,0.05,22.88-10.13,22.94-22.74c0.05-12.61-10.13-22.88-22.74-22.94
				c-12.61-0.05-22.88,10.13-22.94,22.74C521.22,265.75,531.41,276.02,544.02,276.07z"/>
			<path class="st4" d="M544.05,270.17c9.35,0.04,16.97-7.51,17.01-16.86c0.04-9.35-7.51-16.97-16.86-17.01s-16.97,7.51-17.01,16.86
				C527.14,262.51,534.69,270.13,544.05,270.17z"/>
		</g>
	</g>
	<path class="st3" d="M253.05,277.31c7.65,5.93,7.65,17.36,0,23.29c-5.21,4.04-12.68,4.04-17.9,0c-7.65-5.94-7.65-17.36,0-23.29
		C240.36,273.26,247.83,273.26,253.05,277.31z"/>
	
		<rect x="113.15" y="134.38" transform="matrix(0.7114 -0.7028 0.7028 0.7114 -80.8016 137.1345)" class="st2" width="26.81" height="65.13"/>
	
		<rect x="118.77" y="132.07" transform="matrix(0.7113 -0.7028 0.7028 0.7113 -78.5062 138.1169)" class="st3" width="20.25" height="65.13"/>
	
		<rect x="285.46" y="311.64" transform="matrix(0.7071 -0.7071 0.7071 0.7071 -155.1698 306.0504)" class="st2" width="12.8" height="57.38"/>
</g>
<g>
	<path class="st5" d="M411.01,636.67c0,9.07-3.81,17.52-9.89,23.6c-6.08,6.08-14.53,9.89-23.6,9.89h-35.25
		c-9.17,0-17.52-3.81-23.6-9.89c-6.18-6.08-9.89-14.53-9.89-23.6v-57.4h25.35v57.4c0,2.16,1.03,4.12,2.47,5.67s3.5,2.47,5.67,2.47
		h35.25c4.43,0,8.14-3.71,8.14-8.14V488.06h25.35V636.67z"/>
	<path class="st5" d="M457.99,591.53c0,2.16,0.93,4.23,2.47,5.67c1.55,1.44,3.5,2.47,5.67,2.47h12.68v25.35h-12.68
		c-9.07,0-17.52-3.71-23.6-9.89c-6.08-6.08-9.89-14.43-9.89-23.6V488.27h25.35V591.53z"/>
	<path class="st5" d="M543.32,533.72c9.17,0,17.52,3.81,23.6,9.89c6.08,6.08,9.89,14.53,9.89,23.7v24.22
		c0,9.17-3.81,17.52-9.89,23.6c-6.08,6.18-14.43,9.89-23.6,9.89h-65.13v-25.35h65.13c4.43,0,8.14-3.71,8.14-8.14v-24.22
		c0-2.16-0.93-4.22-2.37-5.77c-1.44-1.55-3.61-2.47-5.77-2.47h-46.27v-25.35H543.32z M539.4,648.73c2.37,2.37,3.81,5.57,3.81,9.28
		c0,3.61-1.44,6.8-3.81,9.17c-2.37,2.37-5.57,3.81-9.17,3.81c-3.71,0-6.91-1.44-9.28-3.81c-2.37-2.37-3.71-5.56-3.71-9.17
		c0-3.71,1.34-6.91,3.71-9.28s5.57-3.71,9.28-3.71C533.84,645.02,537.03,646.36,539.4,648.73z"/>
	<path class="st5" d="M667.91,599.67v25.35h-18.86v11.75c0,9.17-3.81,17.62-9.89,23.7c-6.08,6.08-14.53,9.89-23.7,9.89h-25.04
		v-25.35h25.04c4.43,0,8.25-3.81,8.25-8.24V533.72h25.35v65.96H667.91z"/>
	<path class="st5" d="M744.99,533.72c9.17,0,17.62,3.71,23.7,9.79c6.08,6.18,9.89,14.53,9.89,23.7v29.06
		c0,7.94-3.81,15.05-9.89,20.3c-6.18,5.26-14.53,8.45-23.91,8.45h-77.5v-25.35h18.55c-0.62-2.47-0.93-5.26-0.93-8.24v-24.22
		c0-9.17,3.71-17.52,9.89-23.7c6.08-6.08,14.43-9.79,23.6-9.79H744.99z M718.4,559.07c-2.16,0-4.23,0.93-5.77,2.47
		c-1.65,1.55-2.58,3.5-2.58,5.67v24.22c0,2.16,0.93,4.23,2.58,5.77c1.55,1.55,3.61,2.47,5.77,2.47h34.83v-32.46
		c0-4.43-3.81-8.14-8.24-8.14H718.4z M740.87,491.67c2.37,2.37,3.71,5.56,3.71,9.27c0,3.61-1.34,6.8-3.71,9.17
		c-2.37,2.37-5.57,3.81-9.28,3.81c-3.61,0-6.8-1.44-9.17-3.81c-2.37-2.37-3.81-5.57-3.81-9.17c0-3.71,1.44-6.9,3.81-9.27
		c2.37-2.37,5.56-3.71,9.17-3.71C735.3,487.96,738.5,489.3,740.87,491.67z"/>
</g>
</svg>
